# xmcd CD database file
#
# Track frame offsets:
#	150
#	19312
#	33900
#	46312
#	67762
#	82987
#	96187
#	119025
#	132300
#	144487
#	157462
#	182700
#	201225
#	216975
#	228862
#	244950
#	261375
#
# Disc length: 3675 seconds
#
# Revision: 0
# Processed by: cddbd v1.5.1PL0 Copyright (c) Steve Scherf et al.
# Submitted via: CD2WAV32(EN) R3.19
#
DISCID=fd0e5911
DTITLE=Jacque Brel - Poesie et Chanson
DYEAR=1900
DGENRE=
TTITLE0=NE MI QUITTE PAS
TTITLE1=QUAND ON N'A QUE L'AMORE
TTITLE2=LE PLAT PAYS
TTITLE3=LA VALSE A MILLE TEMPS
TTITLE4=LE MORIBOND
TTITLE5=LES BOURGEOIS
TTITLE6=LES BICHES
TTITLE7=MARIEKE
TTITLE8=MADELEINE
TTITLE9=CHANSON SANS PAROLES
TTITLE10=LES PAUMES DU PETIT MATIN
TTITLE11=LA FANETTE
TTITLE12=LE DERNIER REPAS
TTITLE13=MATHILDE
TTITLE14=LES BONBONS
TTITLE15=JEF
TTITLE16=AMSTERDAM
EXTD=
EXTT0=
EXTT1=
EXTT2=
EXTT3=
EXTT4=
EXTT5=
EXTT6=
EXTT7=
EXTT8=
EXTT9=
EXTT10=
EXTT11=
EXTT12=
EXTT13=
EXTT14=
EXTT15=
EXTT16=
PLAYORDER=
